<?xml version="1.0" encoding="utf-8"?><svg xmlns="http://www.w3.org/2000/svg" xmlns:xlink="http://www.w3.org/1999/xlink"><symbol fill="currentColor" class="bi bi-arrow-return-left" viewBox="0 0 16 16" id="arrow-return-left" xmlns="http://www.w3.org/2000/svg"><path fill-rule="evenodd" d="M14.5 1.5a.5.5 0 01.5.5v4.8a2.5 2.5 0 01-2.5 2.5H2.707l3.347 3.346a.5.5 0 01-.708.708l-4.2-4.2a.5.5 0 010-.708l4-4a.5.5 0 11.708.708L2.707 8.3H12.5A1.5 1.5 0 0014 6.8V2a.5.5 0 01.5-.5z"/></symbol><symbol fill="currentColor" class="bi bi-arrows-collapse" viewBox="0 0 16 16" id="arrows-collapse" xmlns="http://www.w3.org/2000/svg"><path fill-rule="evenodd" d="M1 8a.5.5 0 01.5-.5h13a.5.5 0 010 1h-13A.5.5 0 011 8zm7-8a.5.5 0 01.5.5v3.793l1.146-1.147a.5.5 0 01.708.708l-2 2a.5.5 0 01-.708 0l-2-2a.5.5 0 11.708-.708L7.5 4.293V.5A.5.5 0 018 0zm-.5 11.707l-1.146 1.147a.5.5 0 01-.708-.708l2-2a.5.5 0 01.708 0l2 2a.5.5 0 01-.708.708L8.5 11.707V15.5a.5.5 0 01-1 0v-3.793z"/></symbol><symbol fill="currentColor" class="bi bi-arrows-expand" viewBox="0 0 16 16" id="arrows-expand" xmlns="http://www.w3.org/2000/svg"><path fill-rule="evenodd" d="M1 8a.5.5 0 01.5-.5h13a.5.5 0 010 1h-13A.5.5 0 011 8zM7.646.146a.5.5 0 01.708 0l2 2a.5.5 0 01-.708.708L8.5 1.707V5.5a.5.5 0 01-1 0V1.707L6.354 2.854a.5.5 0 11-.708-.708l2-2zM8 10a.5.5 0 01.5.5v3.793l1.146-1.147a.5.5 0 01.708.708l-2 2a.5.5 0 01-.708 0l-2-2a.5.5 0 01.708-.708L7.5 14.293V10.5A.5.5 0 018 10z"/></symbol><symbol fill="currentColor" class="bi bi-bookmark-dash" viewBox="0 0 16 16" id="bookmark-dash" xmlns="http://www.w3.org/2000/svg"><path fill-rule="evenodd" d="M5.5 6.5A.5.5 0 016 6h4a.5.5 0 010 1H6a.5.5 0 01-.5-.5z"/><path d="M2 2a2 2 0 012-2h8a2 2 0 012 2v13.5a.5.5 0 01-.777.416L8 13.101l-5.223 2.815A.5.5 0 012 15.5V2zm2-1a1 1 0 00-1 1v12.566l4.723-2.482a.5.5 0 01.554 0L13 14.566V2a1 1 0 00-1-1H4z"/></symbol><symbol fill="currentColor" class="bi bi-bookmark-plus" viewBox="0 0 16 16" id="bookmark-plus" xmlns="http://www.w3.org/2000/svg"><path d="M2 2a2 2 0 012-2h8a2 2 0 012 2v13.5a.5.5 0 01-.777.416L8 13.101l-5.223 2.815A.5.5 0 012 15.5V2zm2-1a1 1 0 00-1 1v12.566l4.723-2.482a.5.5 0 01.554 0L13 14.566V2a1 1 0 00-1-1H4z"/><path d="M8 4a.5.5 0 01.5.5V6H10a.5.5 0 010 1H8.5v1.5a.5.5 0 01-1 0V7H6a.5.5 0 010-1h1.5V4.5A.5.5 0 018 4z"/></symbol><symbol fill="currentColor" class="bi bi-bookmarks" viewBox="0 0 16 16" id="bookmarks" xmlns="http://www.w3.org/2000/svg"><path d="M2 4a2 2 0 012-2h6a2 2 0 012 2v11.5a.5.5 0 01-.777.416L7 13.101l-4.223 2.815A.5.5 0 012 15.5V4zm2-1a1 1 0 00-1 1v10.566l3.723-2.482a.5.5 0 01.554 0L11 14.566V4a1 1 0 00-1-1H4z"/><path d="M4.268 1H12a1 1 0 011 1v11.768l.223.148A.5.5 0 0014 13.5V2a2 2 0 00-2-2H6a2 2 0 00-1.732 1z"/></symbol><symbol fill="currentColor" class="bi bi-bookmarks-copy" viewBox="0 0 16 16" id="bookmarks-copy" xmlns="http://www.w3.org/2000/svg"><path d="M4 1.5H3c-1.097 0-2 .903-2 2V14c0 1.097.903 2 2 2h10c1.097 0 2-.903 2-2V3.5c0-1.097-.903-2-2-2h-1v1h1c.549 0 1 .451 1 1V14c0 .549-.451 1-1 1H3c-.549 0-1-.451-1-1V3.5c0-.549.451-1 1-1h1v-1z"/><path d="M9.5 1c.274 0 .5.226.5.5v1c0 .274-.226.5-.5.5h-3a.503.503 0 01-.5-.5v-1c0-.274.226-.5.5-.5h3zm-3-1C5.677 0 5 .677 5 1.5v1C5 3.323 5.677 4 6.5 4h3c.823 0 1.5-.677 1.5-1.5v-1C11 .677 10.323 0 9.5 0h-3zM10 5v-.001a.98.98 0 01.376.074.992.992 0 01.624.928V12c0 .274-.226.5-.5.5a.496.496 0 01-.257-.072L8 11.082l-2.243 1.347a.496.496 0 01-.257.072.503.503 0 01-.5-.5V5.999a1 1 0 011-1v.002L10 5zM6 6v5.116l1.743-1.047a.504.504 0 01.514 0L10 11.116V6.001L6 6z"/></symbol><symbol fill="currentColor" class="bi bi-bookmarks-dotted" viewBox="0 0 16 16" id="bookmarks-dotted" xmlns="http://www.w3.org/2000/svg"><path d="M2 4c0-1.097.903-2 2-2h6c1.097 0 2 .903 2 2v11.5a.503.503 0 01-.777.416L7 13.101l-4.223 2.815A.503.503 0 012 15.5V4zm2-1c-.549 0-1 .451-1 1v10.566l3.723-2.482a.502.502 0 01.554 0L11 14.566V4c0-.549-.451-1-1-1H4zM14 13.042h-1v-.917h1v.917zm0-4.584v-.916h-1v-.917h1v2.75h-1v-.917h1zM12.026 0c.34.005.661.096.941.252l-.522.854A.986.986 0 0012 1h-.186L12 0h.026zM4.268 1A2.004 2.004 0 015.542.053V1H4.268zm8.7-.747l.003.002V.254l-.003-.001zM14 10.292v.916h-1v-.916h1zm0-5.5v.916h-1v-.916h1zm0-1.834v.917h-1v-.917h1zM13 2a.989.989 0 00-.107-.447l.852-.525c.158.281.25.604.255.946V2l-1 .212V2zm-2.875-2h-.917v1h-.916V0h-.917v1h-.917V0h4.584v1h-.917V0z"/></symbol><symbol fill="currentColor" class="bi bi-bookmarks-union" viewBox="0 0 16 16" id="bookmarks-union" xmlns="http://www.w3.org/2000/svg"><path d="M2 4c0-1.097.903-2 2-2h6c1.097 0 2 .903 2 2v11.5a.503.503 0 01-.777.416L7 13.101l-4.223 2.815A.503.503 0 012 15.5V4zm2-1c-.549 0-1 .451-1 1v10.566l3.723-2.482a.502.502 0 01.554 0L11 14.566V4c0-.549-.451-1-1-1H4z"/><path d="M2 6c0-1.097.903-2 2-2h6c1.097 0 2 .903 2 2H2zm2-1c-.549 0-1 .451-1 1h8c0-.549-.451-1-1-1H4zM2 8c0-1.097.903-2 2-2h6c1.097 0 2 .903 2 2H2zm2-1c-.549 0-1 .451-1 1h8c0-.549-.451-1-1-1H4z"/><path d="M4.268 1H12c.549 0 1 .451 1 1v11.768l.223.148A.503.503 0 0014 13.5V2c0-1.097-.903-2-2-2H6c-.714 0-1.375.382-1.732 1z"/></symbol><symbol fill="currentColor" class="bi bi-box-arrow-up-right" viewBox="0 0 16 16" id="box-arrow-up-right" xmlns="http://www.w3.org/2000/svg"><path fill-rule="evenodd" d="M8.636 3.5a.5.5 0 00-.5-.5H1.5A1.5 1.5 0 000 4.5v10A1.5 1.5 0 001.5 16h10a1.5 1.5 0 001.5-1.5V7.864a.5.5 0 00-1 0V14.5a.5.5 0 01-.5.5h-10a.5.5 0 01-.5-.5v-10a.5.5 0 01.5-.5h6.636a.5.5 0 00.5-.5z"/><path fill-rule="evenodd" d="M16 .5a.5.5 0 00-.5-.5h-5a.5.5 0 000 1h3.793L6.146 9.146a.5.5 0 10.708.708L15 1.707V5.5a.5.5 0 001 0v-5z"/></symbol><symbol fill="currentColor" class="bi bi-check2" viewBox="0 0 16 16" id="check2" xmlns="http://www.w3.org/2000/svg"><path d="M13.854 3.646a.5.5 0 010 .708l-7 7a.5.5 0 01-.708 0l-3.5-3.5a.5.5 0 11.708-.708L6.5 10.293l6.646-6.647a.5.5 0 01.708 0z"/></symbol><symbol fill="currentColor" class="bi bi-chevron-down" viewBox="0 0 16 16" id="chevron-down" xmlns="http://www.w3.org/2000/svg"><path fill-rule="evenodd" d="M1.646 4.646a.5.5 0 01.708 0L8 10.293l5.646-5.647a.5.5 0 01.708.708l-6 6a.5.5 0 01-.708 0l-6-6a.5.5 0 010-.708z"/></symbol><symbol fill="currentColor" class="bi bi-diagram-2" viewBox="0 0 16 16" id="diagram-2" xmlns="http://www.w3.org/2000/svg"><path fill-rule="evenodd" d="M6 3.5A1.5 1.5 0 017.5 2h1A1.5 1.5 0 0110 3.5v1A1.5 1.5 0 018.5 6v1H11a.5.5 0 01.5.5v1a.5.5 0 01-1 0V8h-5v.5a.5.5 0 01-1 0v-1A.5.5 0 015 7h2.5V6A1.5 1.5 0 016 4.5v-1zM8.5 5a.5.5 0 00.5-.5v-1a.5.5 0 00-.5-.5h-1a.5.5 0 00-.5.5v1a.5.5 0 00.5.5h1zM3 11.5A1.5 1.5 0 014.5 10h1A1.5 1.5 0 017 11.5v1A1.5 1.5 0 015.5 14h-1A1.5 1.5 0 013 12.5v-1zm1.5-.5a.5.5 0 00-.5.5v1a.5.5 0 00.5.5h1a.5.5 0 00.5-.5v-1a.5.5 0 00-.5-.5h-1zm4.5.5a1.5 1.5 0 011.5-1.5h1a1.5 1.5 0 011.5 1.5v1a1.5 1.5 0 01-1.5 1.5h-1A1.5 1.5 0 019 12.5v-1zm1.5-.5a.5.5 0 00-.5.5v1a.5.5 0 00.5.5h1a.5.5 0 00.5-.5v-1a.5.5 0 00-.5-.5h-1z"/></symbol><symbol fill="currentColor" class="bi bi-edge-many" viewBox="0 0 16 16" id="edge-many" xmlns="http://www.w3.org/2000/svg"><path fill-rule="evenodd" d="M6 3.5C6 2.677 6.677 2 7.5 2h1c.823 0 1.5.677 1.5 1.5v1C10 5.323 9.323 6 8.5 6v1H14c.274 0 .5.226.5.5V10h-1V8h-5v2h-1V8h-5v2h-1V7.5c0-.274.226-.5.5-.5h5.5V6C6.677 6 6 5.323 6 4.5v-1zM8.5 5c.274 0 .5-.226.5-.5v-1c0-.274-.226-.5-.5-.5h-1c-.274 0-.5.226-.5.5v1c0 .274.226.5.5.5h1zM0 11.5c0-.823.677-1.5 1.5-1.5h1c.823 0 1.5.677 1.5 1.5v1c0 .823-.677 1.5-1.5 1.5h-1C.677 14 0 13.323 0 12.5v-1zm1.5-.5c-.274 0-.5.226-.5.5v1c0 .274.226.5.5.5h1c.274 0 .5-.226.5-.5v-1c0-.274-.226-.5-.5-.5h-1zm4.5.5c0-.823.677-1.5 1.5-1.5h1c.823 0 1.5.677 1.5 1.5v1c0 .823-.677 1.5-1.5 1.5h-1c-.823 0-1.5-.677-1.5-1.5v-1zm1.5-.5c-.274 0-.5.226-.5.5v1c0 .274.226.5.5.5h1c.274 0 .5-.226.5-.5v-1c0-.274-.226-.5-.5-.5h-1zm4.5.5c0-.823.677-1.5 1.5-1.5h1c.823 0 1.5.677 1.5 1.5v1c0 .823-.677 1.5-1.5 1.5h-1c-.823 0-1.5-.677-1.5-1.5v-1zm1.5-.5c-.274 0-.5.226-.5.5v1c0 .274.226.5.5.5h1c.274 0 .5-.226.5-.5v-1c0-.274-.226-.5-.5-.5h-1z"/></symbol><symbol fill="currentColor" class="bi bi-edge-minus" viewBox="0 0 16 16" id="edge-minus" xmlns="http://www.w3.org/2000/svg"><path d="M2 8.502v-1c0-.823.677-1.501 1.499-1.501h1c.823 0 1.501.677 1.501 1.5l.5-.001c.274 0 .5.226.5.5 0 .275-.226.5-.5.5l-.5.001c0 .822-.677 1.5-1.499 1.5h-1A1.507 1.507 0 012 8.502zm3-.001v-1c0-.274-.226-.5-.5-.5h-1c-.275 0-.5.226-.5.5v1c0 .275.226.5.5.5h1c.275 0 .5-.226.5-.5zm7.499-2.502c.823 0 1.501.676 1.501 1.499v1c0 .823-.677 1.501-1.499 1.501h-1A1.508 1.508 0 0110 8.499l-.5.001A.503.503 0 019 8c0-.275.226-.5.5-.5l.5-.001c0-.822.677-1.5 1.499-1.5h1zm.501 2.5v-1c0-.275-.226-.5-.5-.5h-1c-.275 0-.5.226-.5.5v1c0 .274.226.5.5.5h1c.275 0 .5-.226.5-.5z"/></symbol><symbol fill="currentColor" class="bi bi-edge-plus" viewBox="0 0 16 16" id="edge-plus" xmlns="http://www.w3.org/2000/svg"><path fill-rule="evenodd" d="M6 7.5h4c0-.823.677-1.5 1.5-1.5h1c.823 0 1.5.677 1.5 1.5v1c0 .823-.677 1.5-1.5 1.5h-1c-.823 0-1.5-.677-1.5-1.5H6c0 .823-.677 1.5-1.5 1.5h-1C2.677 10 2 9.323 2 8.5v-1C2 6.677 2.677 6 3.5 6h1C5.323 6 6 6.677 6 7.5zm-1 1v-1c0-.274-.226-.5-.5-.5h-1c-.274 0-.5.226-.5.5v1c0 .274.226.5.5.5h1c.274 0 .5-.226.5-.5zm8 0v-1c0-.274-.226-.5-.5-.5h-1c-.274 0-.5.226-.5.5v1c0 .274.226.5.5.5h1c.274 0 .5-.226.5-.5z"/></symbol><symbol fill="currentColor" class="bi bi-file-earmark" viewBox="0 0 16 16" id="file-earmark" xmlns="http://www.w3.org/2000/svg"><path d="M14 4.5V14a2 2 0 01-2 2H4a2 2 0 01-2-2V2a2 2 0 012-2h5.5L14 4.5zm-3 0A1.5 1.5 0 019.5 3V1H4a1 1 0 00-1 1v12a1 1 0 001 1h8a1 1 0 001-1V4.5h-2z"/></symbol><symbol fill="currentColor" class="bi bi-file-earmark-minus" viewBox="0 0 16 16" id="file-earmark-minus" xmlns="http://www.w3.org/2000/svg"><path d="M5.5 9a.5.5 0 01.5-.5h4a.5.5 0 010 1H6a.5.5 0 01-.5-.5z"/><path d="M14 4.5V14a2 2 0 01-2 2H4a2 2 0 01-2-2V2a2 2 0 012-2h5.5L14 4.5zm-3 0A1.5 1.5 0 019.5 3V1H4a1 1 0 00-1 1v12a1 1 0 001 1h8a1 1 0 001-1V4.5h-2z"/></symbol><symbol fill="currentColor" class="bi bi-file-earmark-plus" viewBox="0 0 16 16" id="file-earmark-plus" xmlns="http://www.w3.org/2000/svg"><path d="M8 6.5a.5.5 0 01.5.5v1.5H10a.5.5 0 010 1H8.5V11a.5.5 0 01-1 0V9.5H6a.5.5 0 010-1h1.5V7a.5.5 0 01.5-.5z"/><path d="M14 4.5V14a2 2 0 01-2 2H4a2 2 0 01-2-2V2a2 2 0 012-2h5.5L14 4.5zm-3 0A1.5 1.5 0 019.5 3V1H4a1 1 0 00-1 1v12a1 1 0 001 1h8a1 1 0 001-1V4.5h-2z"/></symbol><symbol fill="currentColor" class="bi bi-file-earmark-x" viewBox="0 0 16 16" id="file-earmark-x" xmlns="http://www.w3.org/2000/svg"><path d="M6.854 7.146a.5.5 0 10-.708.708L7.293 9l-1.147 1.146a.5.5 0 00.708.708L8 9.707l1.146 1.147a.5.5 0 00.708-.708L8.707 9l1.147-1.146a.5.5 0 00-.708-.708L8 8.293 6.854 7.146z"/><path d="M14 14V4.5L9.5 0H4a2 2 0 00-2 2v12a2 2 0 002 2h8a2 2 0 002-2zM9.5 3A1.5 1.5 0 0011 4.5h2V14a1 1 0 01-1 1H4a1 1 0 01-1-1V2a1 1 0 011-1h5.5v2z"/></symbol><symbol fill="currentColor" class="bi bi-folder" viewBox="0 0 16 16" id="folder" xmlns="http://www.w3.org/2000/svg"><path d="M.54 3.87L.5 3a2 2 0 012-2h3.672a2 2 0 011.414.586l.828.828A2 2 0 009.828 3h3.982a2 2 0 011.992 2.181l-.637 7A2 2 0 0113.174 14H2.826a2 2 0 01-1.991-1.819l-.637-7a1.99 1.99 0 01.342-1.31zM2.19 4a1 1 0 00-.996 1.09l.637 7a1 1 0 00.995.91h10.348a1 1 0 00.995-.91l.637-7A1 1 0 0013.81 4H2.19zm4.69-1.707A1 1 0 006.172 2H2.5a1 1 0 00-1 .981l.006.139C1.72 3.042 1.95 3 2.19 3h5.396l-.707-.707z"/></symbol><symbol fill="currentColor" class="bi bi-folder-minus" viewBox="0 0 16 16" id="folder-minus" xmlns="http://www.w3.org/2000/svg"><path d="M.5 3l.04.87a1.99 1.99 0 00-.342 1.311l.637 7A2 2 0 002.826 14H9v-1H2.826a1 1 0 01-.995-.91l-.637-7A1 1 0 012.19 4h11.62a1 1 0 01.996 1.09L14.54 8h1.005l.256-2.819A2 2 0 0013.81 3H9.828a2 2 0 01-1.414-.586l-.828-.828A2 2 0 006.172 1H2.5a2 2 0 00-2 2zm5.672-1a1 1 0 01.707.293L7.586 3H2.19c-.24 0-.47.042-.683.12L1.5 2.98a1 1 0 011-.98h3.672z"/><path d="M11 11.5a.5.5 0 01.5-.5h4a.5.5 0 110 1h-4a.5.5 0 01-.5-.5z"/></symbol><symbol fill="currentColor" class="bi bi-folder-plus" viewBox="0 0 16 16" id="folder-plus" xmlns="http://www.w3.org/2000/svg"><path d="M.5 3l.04.87a1.99 1.99 0 00-.342 1.311l.637 7A2 2 0 002.826 14H9v-1H2.826a1 1 0 01-.995-.91l-.637-7A1 1 0 012.19 4h11.62a1 1 0 01.996 1.09L14.54 8h1.005l.256-2.819A2 2 0 0013.81 3H9.828a2 2 0 01-1.414-.586l-.828-.828A2 2 0 006.172 1H2.5a2 2 0 00-2 2zm5.672-1a1 1 0 01.707.293L7.586 3H2.19c-.24 0-.47.042-.683.12L1.5 2.98a1 1 0 011-.98h3.672z"/><path d="M13.5 10a.5.5 0 01.5.5V12h1.5a.5.5 0 110 1H14v1.5a.5.5 0 11-1 0V13h-1.5a.5.5 0 010-1H13v-1.5a.5.5 0 01.5-.5z"/></symbol><symbol fill="currentColor" class="bi bi-folder-x" viewBox="0 0 16 16" id="folder-x" xmlns="http://www.w3.org/2000/svg"><path d="M.54 3.87L.5 3a2 2 0 012-2h3.672a2 2 0 011.414.586l.828.828A2 2 0 009.828 3h3.982a2 2 0 011.992 2.181L15.546 8H14.54l.265-2.91A1 1 0 0013.81 4H2.19a1 1 0 00-.996 1.09l.637 7a1 1 0 00.995.91H9v1H2.826a2 2 0 01-1.991-1.819l-.637-7a1.99 1.99 0 01.342-1.31zm6.339-1.577A1 1 0 006.172 2H2.5a1 1 0 00-1 .981l.006.139C1.72 3.042 1.95 3 2.19 3h5.396l-.707-.707z"/><path d="M11.854 10.146a.5.5 0 00-.707.708L12.293 12l-1.146 1.146a.5.5 0 00.707.708L13 12.707l1.146 1.147a.5.5 0 00.708-.708L13.707 12l1.147-1.146a.5.5 0 00-.707-.708L13 11.293l-1.146-1.147z"/></symbol><symbol fill="currentColor" class="bi bi-plus-circle" viewBox="0 0 16 16" id="plus-circle" xmlns="http://www.w3.org/2000/svg"><path d="M8 15A7 7 0 118 1a7 7 0 010 14zm0 1A8 8 0 108 0a8 8 0 000 16z"/><path d="M8 4a.5.5 0 01.5.5v3h3a.5.5 0 010 1h-3v3a.5.5 0 01-1 0v-3h-3a.5.5 0 010-1h3v-3A.5.5 0 018 4z"/></symbol><symbol fill="currentColor" class="bi bi-process" fill-rule="evenodd" clip-rule="evenodd" stroke-linejoin="round" stroke-miterlimit="2" viewBox="0 0 16 16" id="process" xmlns="http://www.w3.org/2000/svg"><path d="M14 7v1c0 .823-.677 1.5-1.5 1.5h-1c-.823 0-1.5-.677-1.5-1.5V7c0-.823.677-1.5 1.5-1.5h1c.823 0 1.5.677 1.5 1.5zm-2.5-.5c-.274 0-.5.226-.5.5v1c0 .274.226.5.5.5h1c.274 0 .5-.226.5-.5V7c0-.274-.226-.5-.5-.5h-1zM6 11.5v1c0 .823-.677 1.5-1.5 1.5h-1c-.823 0-1.5-.677-1.5-1.5v-1c0-.823.677-1.5 1.5-1.5h1c.823 0 1.5.677 1.5 1.5zM3.5 11c-.274 0-.5.226-.5.5v1c0 .274.226.5.5.5h1c.274 0 .5-.226.5-.5v-1c0-.274-.226-.5-.5-.5h-1z"/><path d="M3 9c-.549 0-1-.451-1-1V7c0-.549.451-1 1-1h3c.549 0 1 .451 1 1v1c0 .549-.451 1-1 1H3zm0-4c-.549 0-1-.451-1-1V3c0-.549.451-1 1-1h10c.549 0 1 .451 1 1v1c0 .549-.451 1-1 1H3zM10 7v1H7V7h3zM4 5h1v1H4zM11.5 9.5h1V12a.5.5 0 01-.5.5H6v-1h5.5v-2z" fill-rule="nonzero"/></symbol><symbol fill="currentColor" class="bi bi-search" viewBox="0 0 16 16" id="search" xmlns="http://www.w3.org/2000/svg"><path d="M11.742 10.344a6.5 6.5 0 10-1.397 1.398h-.001c.03.04.062.078.098.115l3.85 3.85a1 1 0 001.415-1.414l-3.85-3.85a1.007 1.007 0 00-.115-.1zM12 6.5a5.5 5.5 0 11-11 0 5.5 5.5 0 0111 0z"/></symbol><symbol fill="currentColor" class="bi bi-trash" viewBox="0 0 16 16" id="trash" xmlns="http://www.w3.org/2000/svg"><path d="M5.5 5.5A.5.5 0 016 6v6a.5.5 0 01-1 0V6a.5.5 0 01.5-.5zm2.5 0a.5.5 0 01.5.5v6a.5.5 0 01-1 0V6a.5.5 0 01.5-.5zm3 .5a.5.5 0 00-1 0v6a.5.5 0 001 0V6z"/><path fill-rule="evenodd" d="M14.5 3a1 1 0 01-1 1H13v9a2 2 0 01-2 2H5a2 2 0 01-2-2V4h-.5a1 1 0 01-1-1V2a1 1 0 011-1H6a1 1 0 011-1h2a1 1 0 011 1h3.5a1 1 0 011 1v1zM4.118 4L4 4.059V13a1 1 0 001 1h6a1 1 0 001-1V4.059L11.882 4H4.118zM2.5 3V2h11v1h-11z"/></symbol><symbol fill="currentColor" class="bi bi-x-circle" viewBox="0 0 16 16" id="x-circle" xmlns="http://www.w3.org/2000/svg"><path d="M8 15A7 7 0 118 1a7 7 0 010 14zm0 1A8 8 0 108 0a8 8 0 000 16z"/><path d="M4.646 4.646a.5.5 0 01.708 0L8 7.293l2.646-2.647a.5.5 0 01.708.708L8.707 8l2.647 2.646a.5.5 0 01-.708.708L8 8.707l-2.646 2.647a.5.5 0 01-.708-.708L7.293 8 4.646 5.354a.5.5 0 010-.708z"/></symbol><symbol fill="currentColor" class="bi bi-x-square" viewBox="0 0 16 16" id="x-square" xmlns="http://www.w3.org/2000/svg"><path d="M14 1a1 1 0 011 1v12a1 1 0 01-1 1H2a1 1 0 01-1-1V2a1 1 0 011-1h12zM2 0a2 2 0 00-2 2v12a2 2 0 002 2h12a2 2 0 002-2V2a2 2 0 00-2-2H2z"/><path d="M4.646 4.646a.5.5 0 01.708 0L8 7.293l2.646-2.647a.5.5 0 01.708.708L8.707 8l2.647 2.646a.5.5 0 01-.708.708L8 8.707l-2.646 2.647a.5.5 0 01-.708-.708L7.293 8 4.646 5.354a.5.5 0 010-.708z"/></symbol><symbol fill="currentColor" class="bi bi-zoom-init" fill-rule="evenodd" clip-rule="evenodd" stroke-linejoin="round" stroke-miterlimit="2" viewBox="0 0 16 16" id="zoom-init" xmlns="http://www.w3.org/2000/svg"><path d="M6.5 12C9.517 12 12 9.517 12 6.5S9.517 1 6.5 1 1 3.483 1 6.5 3.483 12 6.5 12zM13 6.5c0 3.566-2.934 6.5-6.5 6.5S0 10.066 0 6.5 2.934 0 6.5 0 13 2.934 13 6.5z"/><path d="M10.344 11.742c.03.04.062.078.098.115l3.85 3.85a1 1 0 101.415-1.414l-3.85-3.85a.993.993 0 00-.115-.1 6.535 6.535 0 01-1.398 1.4v-.001zM5 7c.549 0 1 .451 1 1 0 .549-.451 1-1 1-.549 0-1-.451-1-1 0-.549.451-1 1-1zm0-3c.549 0 1 .451 1 1 0 .549-.451 1-1 1-.549 0-1-.451-1-1 0-.549.451-1 1-1zm3 3c.549 0 1 .451 1 1 0 .549-.451 1-1 1-.549 0-1-.451-1-1 0-.549.451-1 1-1zm0-3c.549 0 1 .451 1 1 0 .549-.451 1-1 1-.549 0-1-.451-1-1 0-.549.451-1 1-1z" fill-rule="nonzero"/></symbol></svg>